<svg xmlns="http://www.w3.org/2000/svg" width="1024" height="768" viewBox="0 0 1024 768">
<defs>
  <linearGradient id="sky" x1="0" y1="0" x2="0" y2="1"><stop offset="0" stop-color="#08101a"/><stop offset="0.58" stop-color="#11151b"/><stop offset="1" stop-color="#020305"/></linearGradient>
  <radialGradient id="glow" cx="50%" cy="35%" r="48%"><stop offset="0" stop-color="#5f7c9e" stop-opacity="0.95"/><stop offset="0.22" stop-color="#5f7c9e" stop-opacity="0.28"/><stop offset="1" stop-color="#5f7c9e" stop-opacity="0"/></radialGradient>
  <filter id="blur"><feGaussianBlur stdDeviation="18"/></filter>
  <filter id="grain"><feTurbulence type="fractalNoise" baseFrequency="0.75" numOctaves="3" seed="7"/><feColorMatrix type="saturate" values="0"/><feComponentTransfer><feFuncA type="table" tableValues="0 0.12"/></feComponentTransfer></filter>
 </defs>
<rect width="1024" height="768" fill="url(#sky)"/>
<rect width="1024" height="768" fill="url(#glow)"/>
<ellipse cx="130.0" cy="210.0" rx="150.0" ry="55.0" fill="#fff" opacity="0.2" filter="url(#blur)"/>
<ellipse cx="250.0" cy="190.0" rx="180.0" ry="70.0" fill="#fff" opacity="0.2" filter="url(#blur)"/>
<ellipse cx="370.0" cy="215.0" rx="150.0" ry="56.0" fill="#fff" opacity="0.2" filter="url(#blur)"/>
<ellipse cx="230.0" cy="154.0" rx="120.0" ry="64.0" fill="#fff" opacity="0.2" filter="url(#blur)"/>
<ellipse cx="435.0" cy="270.0" rx="187.5" ry="68.75" fill="#fff" opacity="0.18" filter="url(#blur)"/>
<ellipse cx="585.0" cy="245.0" rx="225.0" ry="87.5" fill="#fff" opacity="0.18" filter="url(#blur)"/>
<ellipse cx="735.0" cy="276.25" rx="187.5" ry="70.0" fill="#fff" opacity="0.18" filter="url(#blur)"/>
<ellipse cx="560.0" cy="200.0" rx="150.0" ry="80.0" fill="#fff" opacity="0.18" filter="url(#blur)"/>
<ellipse cx="718.0" cy="167.0" rx="127.5" ry="46.75" fill="#fff" opacity="0.16" filter="url(#blur)"/>
<ellipse cx="820.0" cy="150.0" rx="153.0" ry="59.5" fill="#fff" opacity="0.16" filter="url(#blur)"/>
<ellipse cx="922.0" cy="171.25" rx="127.5" ry="47.6" fill="#fff" opacity="0.16" filter="url(#blur)"/>
<ellipse cx="803.0" cy="119.4" rx="102.0" ry="54.4" fill="#fff" opacity="0.16" filter="url(#blur)"/>
<ellipse cx="236.0" cy="389.0" rx="217.5" ry="79.75" fill="#fff" opacity="0.12" filter="url(#blur)"/>
<ellipse cx="410.0" cy="360.0" rx="261.0" ry="101.5" fill="#fff" opacity="0.12" filter="url(#blur)"/>
<ellipse cx="584.0" cy="396.25" rx="217.5" ry="81.2" fill="#fff" opacity="0.12" filter="url(#blur)"/>
<ellipse cx="381.0" cy="307.8" rx="174.0" ry="92.8" fill="#fff" opacity="0.12" filter="url(#blur)"/>
<line x1="-100" y1="90" x2="-180" y2="760" stroke="#a8c7e8" stroke-width="2" opacity="0.28"/>
<line x1="-72" y1="90" x2="-152" y2="760" stroke="#a8c7e8" stroke-width="2" opacity="0.28"/>
<line x1="-44" y1="90" x2="-124" y2="760" stroke="#a8c7e8" stroke-width="2" opacity="0.28"/>
<line x1="-16" y1="90" x2="-96" y2="760" stroke="#a8c7e8" stroke-width="2" opacity="0.28"/>
<line x1="12" y1="90" x2="-68" y2="760" stroke="#a8c7e8" stroke-width="2" opacity="0.28"/>
<line x1="40" y1="90" x2="-40" y2="760" stroke="#a8c7e8" stroke-width="2" opacity="0.28"/>
<line x1="68" y1="90" x2="-12" y2="760" stroke="#a8c7e8" stroke-width="2" opacity="0.28"/>
<line x1="96" y1="90" x2="16" y2="760" stroke="#a8c7e8" stroke-width="2" opacity="0.28"/>
<line x1="124" y1="90" x2="44" y2="760" stroke="#a8c7e8" stroke-width="2" opacity="0.28"/>
<line x1="152" y1="90" x2="72" y2="760" stroke="#a8c7e8" stroke-width="2" opacity="0.28"/>
<line x1="180" y1="90" x2="100" y2="760" stroke="#a8c7e8" stroke-width="2" opacity="0.28"/>
<line x1="208" y1="90" x2="128" y2="760" stroke="#a8c7e8" stroke-width="2" opacity="0.28"/>
<line x1="236" y1="90" x2="156" y2="760" stroke="#a8c7e8" stroke-width="2" opacity="0.28"/>
<line x1="264" y1="90" x2="184" y2="760" stroke="#a8c7e8" stroke-width="2" opacity="0.28"/>
<line x1="292" y1="90" x2="212" y2="760" stroke="#a8c7e8" stroke-width="2" opacity="0.28"/>
<line x1="320" y1="90" x2="240" y2="760" stroke="#a8c7e8" stroke-width="2" opacity="0.28"/>
<line x1="348" y1="90" x2="268" y2="760" stroke="#a8c7e8" stroke-width="2" opacity="0.28"/>
<line x1="376" y1="90" x2="296" y2="760" stroke="#a8c7e8" stroke-width="2" opacity="0.28"/>
<line x1="404" y1="90" x2="324" y2="760" stroke="#a8c7e8" stroke-width="2" opacity="0.28"/>
<line x1="432" y1="90" x2="352" y2="760" stroke="#a8c7e8" stroke-width="2" opacity="0.28"/>
<line x1="460" y1="90" x2="380" y2="760" stroke="#a8c7e8" stroke-width="2" opacity="0.28"/>
<line x1="488" y1="90" x2="408" y2="760" stroke="#a8c7e8" stroke-width="2" opacity="0.28"/>
<line x1="516" y1="90" x2="436" y2="760" stroke="#a8c7e8" stroke-width="2" opacity="0.28"/>
<line x1="544" y1="90" x2="464" y2="760" stroke="#a8c7e8" stroke-width="2" opacity="0.28"/>
<line x1="572" y1="90" x2="492" y2="760" stroke="#a8c7e8" stroke-width="2" opacity="0.28"/>
<line x1="600" y1="90" x2="520" y2="760" stroke="#a8c7e8" stroke-width="2" opacity="0.28"/>
<line x1="628" y1="90" x2="548" y2="760" stroke="#a8c7e8" stroke-width="2" opacity="0.28"/>
<line x1="656" y1="90" x2="576" y2="760" stroke="#a8c7e8" stroke-width="2" opacity="0.28"/>
<line x1="684" y1="90" x2="604" y2="760" stroke="#a8c7e8" stroke-width="2" opacity="0.28"/>
<line x1="712" y1="90" x2="632" y2="760" stroke="#a8c7e8" stroke-width="2" opacity="0.28"/>
<line x1="740" y1="90" x2="660" y2="760" stroke="#a8c7e8" stroke-width="2" opacity="0.28"/>
<line x1="768" y1="90" x2="688" y2="760" stroke="#a8c7e8" stroke-width="2" opacity="0.28"/>
<line x1="796" y1="90" x2="716" y2="760" stroke="#a8c7e8" stroke-width="2" opacity="0.28"/>
<line x1="824" y1="90" x2="744" y2="760" stroke="#a8c7e8" stroke-width="2" opacity="0.28"/>
<line x1="852" y1="90" x2="772" y2="760" stroke="#a8c7e8" stroke-width="2" opacity="0.28"/>
<line x1="880" y1="90" x2="800" y2="760" stroke="#a8c7e8" stroke-width="2" opacity="0.28"/>
<line x1="908" y1="90" x2="828" y2="760" stroke="#a8c7e8" stroke-width="2" opacity="0.28"/>
<line x1="936" y1="90" x2="856" y2="760" stroke="#a8c7e8" stroke-width="2" opacity="0.28"/>
<line x1="964" y1="90" x2="884" y2="760" stroke="#a8c7e8" stroke-width="2" opacity="0.28"/>
<line x1="992" y1="90" x2="912" y2="760" stroke="#a8c7e8" stroke-width="2" opacity="0.28"/>
<line x1="1020" y1="90" x2="940" y2="760" stroke="#a8c7e8" stroke-width="2" opacity="0.28"/>
<line x1="1048" y1="90" x2="968" y2="760" stroke="#a8c7e8" stroke-width="2" opacity="0.28"/>
<line x1="1076" y1="90" x2="996" y2="760" stroke="#a8c7e8" stroke-width="2" opacity="0.28"/>
<rect width="1024" height="768" fill="#000" opacity="0.28"/>
<rect width="1024" height="768" filter="url(#grain)" opacity="0.30"/>
<title>Heavy rain streaks over storm sky, generated for iPad 1 weather background - WMO weather code 61</title></svg>