<svg xmlns="http://www.w3.org/2000/svg" width="1024" height="768" viewBox="0 0 1024 768">
<defs>
  <linearGradient id="sky" x1="0" y1="0" x2="0" y2="1"><stop offset="0" stop-color="#182230"/><stop offset="0.58" stop-color="#11151b"/><stop offset="1" stop-color="#020305"/></linearGradient>
  <radialGradient id="glow" cx="50%" cy="35%" r="48%"><stop offset="0" stop-color="#edf4ff" stop-opacity="0.95"/><stop offset="0.22" stop-color="#edf4ff" stop-opacity="0.28"/><stop offset="1" stop-color="#edf4ff" stop-opacity="0"/></radialGradient>
  <filter id="blur"><feGaussianBlur stdDeviation="18"/></filter>
  <filter id="grain"><feTurbulence type="fractalNoise" baseFrequency="0.75" numOctaves="3" seed="7"/><feColorMatrix type="saturate" values="0"/><feComponentTransfer><feFuncA type="table" tableValues="0 0.12"/></feComponentTransfer></filter>
 </defs>
<rect width="1024" height="768" fill="url(#sky)"/>
<rect width="1024" height="768" fill="url(#glow)"/>
<ellipse cx="130.0" cy="210.0" rx="150.0" ry="55.0" fill="#fff" opacity="0.2" filter="url(#blur)"/>
<ellipse cx="250.0" cy="190.0" rx="180.0" ry="70.0" fill="#fff" opacity="0.2" filter="url(#blur)"/>
<ellipse cx="370.0" cy="215.0" rx="150.0" ry="56.0" fill="#fff" opacity="0.2" filter="url(#blur)"/>
<ellipse cx="230.0" cy="154.0" rx="120.0" ry="64.0" fill="#fff" opacity="0.2" filter="url(#blur)"/>
<ellipse cx="435.0" cy="270.0" rx="187.5" ry="68.75" fill="#fff" opacity="0.18" filter="url(#blur)"/>
<ellipse cx="585.0" cy="245.0" rx="225.0" ry="87.5" fill="#fff" opacity="0.18" filter="url(#blur)"/>
<ellipse cx="735.0" cy="276.25" rx="187.5" ry="70.0" fill="#fff" opacity="0.18" filter="url(#blur)"/>
<ellipse cx="560.0" cy="200.0" rx="150.0" ry="80.0" fill="#fff" opacity="0.18" filter="url(#blur)"/>
<ellipse cx="718.0" cy="167.0" rx="127.5" ry="46.75" fill="#fff" opacity="0.16" filter="url(#blur)"/>
<ellipse cx="820.0" cy="150.0" rx="153.0" ry="59.5" fill="#fff" opacity="0.16" filter="url(#blur)"/>
<ellipse cx="922.0" cy="171.25" rx="127.5" ry="47.6" fill="#fff" opacity="0.16" filter="url(#blur)"/>
<ellipse cx="803.0" cy="119.4" rx="102.0" ry="54.4" fill="#fff" opacity="0.16" filter="url(#blur)"/>
<ellipse cx="236.0" cy="389.0" rx="217.5" ry="79.75" fill="#fff" opacity="0.12" filter="url(#blur)"/>
<ellipse cx="410.0" cy="360.0" rx="261.0" ry="101.5" fill="#fff" opacity="0.12" filter="url(#blur)"/>
<ellipse cx="584.0" cy="396.25" rx="217.5" ry="81.2" fill="#fff" opacity="0.12" filter="url(#blur)"/>
<ellipse cx="381.0" cy="307.8" rx="174.0" ry="92.8" fill="#fff" opacity="0.12" filter="url(#blur)"/>
<circle cx="0" cy="0" r="1" fill="#fff" opacity="0.25"/>
<circle cx="73" cy="131" r="2" fill="#fff" opacity="0.35"/>
<circle cx="146" cy="262" r="3" fill="#fff" opacity="0.45"/>
<circle cx="219" cy="393" r="4" fill="#fff" opacity="0.55"/>
<circle cx="292" cy="524" r="1" fill="#fff" opacity="0.65"/>
<circle cx="365" cy="655" r="2" fill="#fff" opacity="0.25"/>
<circle cx="438" cy="18" r="3" fill="#fff" opacity="0.35"/>
<circle cx="511" cy="149" r="4" fill="#fff" opacity="0.45"/>
<circle cx="584" cy="280" r="1" fill="#fff" opacity="0.55"/>
<circle cx="657" cy="411" r="2" fill="#fff" opacity="0.65"/>
<circle cx="730" cy="542" r="3" fill="#fff" opacity="0.25"/>
<circle cx="803" cy="673" r="4" fill="#fff" opacity="0.35"/>
<circle cx="876" cy="36" r="1" fill="#fff" opacity="0.45"/>
<circle cx="949" cy="167" r="2" fill="#fff" opacity="0.55"/>
<circle cx="1022" cy="298" r="3" fill="#fff" opacity="0.65"/>
<circle cx="71" cy="429" r="4" fill="#fff" opacity="0.25"/>
<circle cx="144" cy="560" r="1" fill="#fff" opacity="0.35"/>
<circle cx="217" cy="691" r="2" fill="#fff" opacity="0.45"/>
<circle cx="290" cy="54" r="3" fill="#fff" opacity="0.55"/>
<circle cx="363" cy="185" r="4" fill="#fff" opacity="0.65"/>
<circle cx="436" cy="316" r="1" fill="#fff" opacity="0.25"/>
<circle cx="509" cy="447" r="2" fill="#fff" opacity="0.35"/>
<circle cx="582" cy="578" r="3" fill="#fff" opacity="0.45"/>
<circle cx="655" cy="709" r="4" fill="#fff" opacity="0.55"/>
<circle cx="728" cy="72" r="1" fill="#fff" opacity="0.65"/>
<circle cx="801" cy="203" r="2" fill="#fff" opacity="0.25"/>
<circle cx="874" cy="334" r="3" fill="#fff" opacity="0.35"/>
<circle cx="947" cy="465" r="4" fill="#fff" opacity="0.45"/>
<circle cx="1020" cy="596" r="1" fill="#fff" opacity="0.55"/>
<circle cx="69" cy="727" r="2" fill="#fff" opacity="0.65"/>
<circle cx="142" cy="90" r="3" fill="#fff" opacity="0.25"/>
<circle cx="215" cy="221" r="4" fill="#fff" opacity="0.35"/>
<circle cx="288" cy="352" r="1" fill="#fff" opacity="0.45"/>
<circle cx="361" cy="483" r="2" fill="#fff" opacity="0.55"/>
<circle cx="434" cy="614" r="3" fill="#fff" opacity="0.65"/>
<circle cx="507" cy="745" r="4" fill="#fff" opacity="0.25"/>
<circle cx="580" cy="108" r="1" fill="#fff" opacity="0.35"/>
<circle cx="653" cy="239" r="2" fill="#fff" opacity="0.45"/>
<circle cx="726" cy="370" r="3" fill="#fff" opacity="0.55"/>
<circle cx="799" cy="501" r="4" fill="#fff" opacity="0.65"/>
<circle cx="872" cy="632" r="1" fill="#fff" opacity="0.25"/>
<circle cx="945" cy="763" r="2" fill="#fff" opacity="0.35"/>
<circle cx="1018" cy="126" r="3" fill="#fff" opacity="0.45"/>
<circle cx="67" cy="257" r="4" fill="#fff" opacity="0.55"/>
<circle cx="140" cy="388" r="1" fill="#fff" opacity="0.65"/>
<circle cx="213" cy="519" r="2" fill="#fff" opacity="0.25"/>
<circle cx="286" cy="650" r="3" fill="#fff" opacity="0.35"/>
<circle cx="359" cy="13" r="4" fill="#fff" opacity="0.45"/>
<circle cx="432" cy="144" r="1" fill="#fff" opacity="0.55"/>
<circle cx="505" cy="275" r="2" fill="#fff" opacity="0.65"/>
<circle cx="578" cy="406" r="3" fill="#fff" opacity="0.25"/>
<circle cx="651" cy="537" r="4" fill="#fff" opacity="0.35"/>
<circle cx="724" cy="668" r="1" fill="#fff" opacity="0.45"/>
<circle cx="797" cy="31" r="2" fill="#fff" opacity="0.55"/>
<circle cx="870" cy="162" r="3" fill="#fff" opacity="0.65"/>
<circle cx="943" cy="293" r="4" fill="#fff" opacity="0.25"/>
<circle cx="1016" cy="424" r="1" fill="#fff" opacity="0.35"/>
<circle cx="65" cy="555" r="2" fill="#fff" opacity="0.45"/>
<circle cx="138" cy="686" r="3" fill="#fff" opacity="0.55"/>
<circle cx="211" cy="49" r="4" fill="#fff" opacity="0.65"/>
<circle cx="284" cy="180" r="1" fill="#fff" opacity="0.25"/>
<circle cx="357" cy="311" r="2" fill="#fff" opacity="0.35"/>
<circle cx="430" cy="442" r="3" fill="#fff" opacity="0.45"/>
<circle cx="503" cy="573" r="4" fill="#fff" opacity="0.55"/>
<circle cx="576" cy="704" r="1" fill="#fff" opacity="0.65"/>
<circle cx="649" cy="67" r="2" fill="#fff" opacity="0.25"/>
<circle cx="722" cy="198" r="3" fill="#fff" opacity="0.35"/>
<circle cx="795" cy="329" r="4" fill="#fff" opacity="0.45"/>
<circle cx="868" cy="460" r="1" fill="#fff" opacity="0.55"/>
<circle cx="941" cy="591" r="2" fill="#fff" opacity="0.65"/>
<circle cx="1014" cy="722" r="3" fill="#fff" opacity="0.25"/>
<circle cx="63" cy="85" r="4" fill="#fff" opacity="0.35"/>
<circle cx="136" cy="216" r="1" fill="#fff" opacity="0.45"/>
<circle cx="209" cy="347" r="2" fill="#fff" opacity="0.55"/>
<circle cx="282" cy="478" r="3" fill="#fff" opacity="0.65"/>
<circle cx="355" cy="609" r="4" fill="#fff" opacity="0.25"/>
<circle cx="428" cy="740" r="1" fill="#fff" opacity="0.35"/>
<circle cx="501" cy="103" r="2" fill="#fff" opacity="0.45"/>
<circle cx="574" cy="234" r="3" fill="#fff" opacity="0.55"/>
<circle cx="647" cy="365" r="4" fill="#fff" opacity="0.65"/>
<circle cx="720" cy="496" r="1" fill="#fff" opacity="0.25"/>
<circle cx="793" cy="627" r="2" fill="#fff" opacity="0.35"/>
<circle cx="866" cy="758" r="3" fill="#fff" opacity="0.45"/>
<circle cx="939" cy="121" r="4" fill="#fff" opacity="0.55"/>
<circle cx="1012" cy="252" r="1" fill="#fff" opacity="0.65"/>
<circle cx="61" cy="383" r="2" fill="#fff" opacity="0.25"/>
<circle cx="134" cy="514" r="3" fill="#fff" opacity="0.35"/>
<circle cx="207" cy="645" r="4" fill="#fff" opacity="0.45"/>
<circle cx="280" cy="8" r="1" fill="#fff" opacity="0.55"/>
<circle cx="353" cy="139" r="2" fill="#fff" opacity="0.65"/>
<circle cx="426" cy="270" r="3" fill="#fff" opacity="0.25"/>
<circle cx="499" cy="401" r="4" fill="#fff" opacity="0.35"/>
<circle cx="572" cy="532" r="1" fill="#fff" opacity="0.45"/>
<circle cx="645" cy="663" r="2" fill="#fff" opacity="0.55"/>
<circle cx="718" cy="26" r="3" fill="#fff" opacity="0.65"/>
<circle cx="791" cy="157" r="4" fill="#fff" opacity="0.25"/>
<circle cx="864" cy="288" r="1" fill="#fff" opacity="0.35"/>
<circle cx="937" cy="419" r="2" fill="#fff" opacity="0.45"/>
<circle cx="1010" cy="550" r="3" fill="#fff" opacity="0.55"/>
<circle cx="59" cy="681" r="4" fill="#fff" opacity="0.65"/>
<circle cx="132" cy="44" r="1" fill="#fff" opacity="0.25"/>
<circle cx="205" cy="175" r="2" fill="#fff" opacity="0.35"/>
<circle cx="278" cy="306" r="3" fill="#fff" opacity="0.45"/>
<circle cx="351" cy="437" r="4" fill="#fff" opacity="0.55"/>
<circle cx="424" cy="568" r="1" fill="#fff" opacity="0.65"/>
<circle cx="497" cy="699" r="2" fill="#fff" opacity="0.25"/>
<circle cx="570" cy="62" r="3" fill="#fff" opacity="0.35"/>
<circle cx="643" cy="193" r="4" fill="#fff" opacity="0.45"/>
<circle cx="716" cy="324" r="1" fill="#fff" opacity="0.55"/>
<circle cx="789" cy="455" r="2" fill="#fff" opacity="0.65"/>
<circle cx="862" cy="586" r="3" fill="#fff" opacity="0.25"/>
<circle cx="935" cy="717" r="4" fill="#fff" opacity="0.35"/>
<circle cx="1008" cy="80" r="1" fill="#fff" opacity="0.45"/>
<circle cx="57" cy="211" r="2" fill="#fff" opacity="0.55"/>
<circle cx="130" cy="342" r="3" fill="#fff" opacity="0.65"/>
<circle cx="203" cy="473" r="4" fill="#fff" opacity="0.25"/>
<circle cx="276" cy="604" r="1" fill="#fff" opacity="0.35"/>
<circle cx="349" cy="735" r="2" fill="#fff" opacity="0.45"/>
<circle cx="422" cy="98" r="3" fill="#fff" opacity="0.55"/>
<circle cx="495" cy="229" r="4" fill="#fff" opacity="0.65"/>
<circle cx="568" cy="360" r="1" fill="#fff" opacity="0.25"/>
<circle cx="641" cy="491" r="2" fill="#fff" opacity="0.35"/>
<circle cx="714" cy="622" r="3" fill="#fff" opacity="0.45"/>
<circle cx="787" cy="753" r="4" fill="#fff" opacity="0.55"/>
<circle cx="860" cy="116" r="1" fill="#fff" opacity="0.65"/>
<circle cx="933" cy="247" r="2" fill="#fff" opacity="0.25"/>
<circle cx="1006" cy="378" r="3" fill="#fff" opacity="0.35"/>
<circle cx="55" cy="509" r="4" fill="#fff" opacity="0.45"/>
<circle cx="128" cy="640" r="1" fill="#fff" opacity="0.55"/>
<circle cx="201" cy="3" r="2" fill="#fff" opacity="0.65"/>
<circle cx="274" cy="134" r="3" fill="#fff" opacity="0.25"/>
<circle cx="347" cy="265" r="4" fill="#fff" opacity="0.35"/>
<circle cx="420" cy="396" r="1" fill="#fff" opacity="0.45"/>
<circle cx="493" cy="527" r="2" fill="#fff" opacity="0.55"/>
<circle cx="566" cy="658" r="3" fill="#fff" opacity="0.65"/>
<circle cx="639" cy="21" r="4" fill="#fff" opacity="0.25"/>
<circle cx="712" cy="152" r="1" fill="#fff" opacity="0.35"/>
<circle cx="785" cy="283" r="2" fill="#fff" opacity="0.45"/>
<circle cx="858" cy="414" r="3" fill="#fff" opacity="0.55"/>
<circle cx="931" cy="545" r="4" fill="#fff" opacity="0.65"/>
<circle cx="1004" cy="676" r="1" fill="#fff" opacity="0.25"/>
<circle cx="53" cy="39" r="2" fill="#fff" opacity="0.35"/>
<circle cx="126" cy="170" r="3" fill="#fff" opacity="0.45"/>
<circle cx="199" cy="301" r="4" fill="#fff" opacity="0.55"/>
<circle cx="272" cy="432" r="1" fill="#fff" opacity="0.65"/>
<circle cx="345" cy="563" r="2" fill="#fff" opacity="0.25"/>
<circle cx="418" cy="694" r="3" fill="#fff" opacity="0.35"/>
<circle cx="491" cy="57" r="4" fill="#fff" opacity="0.45"/>
<circle cx="564" cy="188" r="1" fill="#fff" opacity="0.55"/>
<circle cx="637" cy="319" r="2" fill="#fff" opacity="0.65"/>
<circle cx="710" cy="450" r="3" fill="#fff" opacity="0.25"/>
<circle cx="783" cy="581" r="4" fill="#fff" opacity="0.35"/>
<circle cx="856" cy="712" r="1" fill="#fff" opacity="0.45"/>
<circle cx="929" cy="75" r="2" fill="#fff" opacity="0.55"/>
<circle cx="1002" cy="206" r="3" fill="#fff" opacity="0.65"/>
<circle cx="51" cy="337" r="4" fill="#fff" opacity="0.25"/>
<circle cx="124" cy="468" r="1" fill="#fff" opacity="0.35"/>
<circle cx="197" cy="599" r="2" fill="#fff" opacity="0.45"/>
<circle cx="270" cy="730" r="3" fill="#fff" opacity="0.55"/>
<circle cx="343" cy="93" r="4" fill="#fff" opacity="0.65"/>
<circle cx="416" cy="224" r="1" fill="#fff" opacity="0.25"/>
<circle cx="489" cy="355" r="2" fill="#fff" opacity="0.35"/>
<circle cx="562" cy="486" r="3" fill="#fff" opacity="0.45"/>
<circle cx="635" cy="617" r="4" fill="#fff" opacity="0.55"/>
<circle cx="708" cy="748" r="1" fill="#fff" opacity="0.65"/>
<circle cx="781" cy="111" r="2" fill="#fff" opacity="0.25"/>
<circle cx="854" cy="242" r="3" fill="#fff" opacity="0.35"/>
<circle cx="927" cy="373" r="4" fill="#fff" opacity="0.45"/>
<circle cx="1000" cy="504" r="1" fill="#fff" opacity="0.55"/>
<circle cx="49" cy="635" r="2" fill="#fff" opacity="0.65"/>
<rect width="1024" height="768" fill="#000" opacity="0.28"/>
<rect width="1024" height="768" filter="url(#grain)" opacity="0.30"/>
<title>Snowfall in cold blue atmosphere, generated for iPad 1 weather background</title></svg>